<?xml version="1.0" encoding="UTF-8" standalone="no"?>
<svg
   xmlns:dc="http://purl.org/dc/elements/1.1/"
   xmlns:cc="http://creativecommons.org/ns#"
   xmlns:rdf="http://www.w3.org/1999/02/22-rdf-syntax-ns#"
   xmlns:svg="http://www.w3.org/2000/svg"
   xmlns="http://www.w3.org/2000/svg"
   xmlns:sodipodi="http://sodipodi.sourceforge.net/DTD/sodipodi-0.dtd"
   xmlns:inkscape="http://www.inkscape.org/namespaces/inkscape"
   id="Calque_1"
   data-name="Calque 1"
   viewBox="0 0 165.92125 192"
   version="1.1"
   sodipodi:docname="logo.svg"
   width="4.3899999cm"
   height="5.0799999cm"
   inkscape:version="0.92.4 (unknown)"
   inkscape:export-filename="/home/nicolas/R/Packages/tabula/man/figures/logo.png"
   inkscape:export-xdpi="200"
   inkscape:export-ydpi="200">
  <metadata
     id="metadata47">
    <rdf:RDF>
      <cc:Work
         rdf:about="">
        <dc:format>image/svg+xml</dc:format>
        <dc:type
           rdf:resource="http://purl.org/dc/dcmitype/StillImage" />
        <dc:title>tabula</dc:title>
      </cc:Work>
    </rdf:RDF>
  </metadata>
  <sodipodi:namedview
     pagecolor="#ffffff"
     bordercolor="#666666"
     borderopacity="1"
     objecttolerance="10"
     gridtolerance="10"
     guidetolerance="10"
     inkscape:pageopacity="0"
     inkscape:pageshadow="2"
     inkscape:window-width="1920"
     inkscape:window-height="1172"
     id="namedview45"
     showgrid="false"
     units="cm"
     inkscape:document-units="mm"
     inkscape:zoom="3.17"
     inkscape:cx="100.50829"
     inkscape:cy="120.3847"
     inkscape:window-x="1366"
     inkscape:window-y="0"
     inkscape:window-maximized="1"
     inkscape:current-layer="Calque_1" />
  <defs
     id="defs4">
    <style
       id="style2">.cls-1{fill:#ccc;}.cls-1,.cls-2,.cls-3,.cls-4,.cls-6{fill-rule:evenodd;}.cls-2{fill:#1b496a;}.cls-3{fill:#0d1f2e;opacity:0.4;}.cls-4,.cls-5{fill:#7ba9ba;}.cls-6{fill:none;}</style>
  </defs>
  <title
     id="title6">tabula</title>
  <polygon
     class="cls-1"
     points="131.93,119.92 65.96,158 0,119.92 0,43.75 65.96,5.67 131.93,43.75 "
     id="polygon8"
     style="fill:#cccccc;fill-rule:evenodd"
     transform="matrix(1.2193739,0,0,1.2220639,0,-1.0861076)" />
  <g
     id="g868"
     transform="matrix(1.2194663,0,0,1.2220639,1.1347664,-41.55018)">
    <polygon
       transform="translate(0,34.000006)"
       style="fill:#1b496a;fill-rule:evenodd"
       id="polygon10"
       points="69.17,152.33 3.21,114.25 3.21,38.08 69.17,0 135.13,38.08 135.13,114.25 "
       class="cls-2" />
    <polyline
       transform="matrix(0.92266083,0,0,0.92266083,0.24825868,42.175931)"
       style="opacity:0.4;fill:#0d1f2e;fill-rule:evenodd"
       id="polyline12"
       points="42.69 23.02 3.21 45.82 3.21 114.25 52.04 142.44 96.57 116.74 92.19 110.77 107.06 102.06 102.14 96.5 117.29 87.53 78.32 81.28 91.83 73.33 72.05 66.11 88.27 66.83 102.16 58.81 80.29 51.3 91.84 44.5 65.44 36.54 77.22 29.7 61.66 21.22 48.75 28.64"
       class="cls-3" />
    <path
       style="fill:#7ba9ba;fill-rule:evenodd;stroke-width:0.92266065"
       inkscape:connector-curvature="0"
       id="path14"
       d="m 30.363912,116.52401 a 75.934981,75.934981 0 0 0 6.144914,17.53044 42.793016,42.793016 0 0 1 3.875165,11.84691 2.8417955,2.8417955 0 0 0 1.605432,2.1684 16.118881,16.118881 0 0 0 7.510467,1.78075 V 61.754781 a 40.034241,40.034241 0 0 0 -6.458616,0.498259 13.618477,13.618477 0 0 0 -2.620359,0.65507 2.362011,2.362011 0 0 0 -1.596214,3.054027 5.2591655,5.2591655 0 0 0 0.645879,1.642337 4.9639147,4.9639147 0 0 1 0.645854,1.753038 1.9006812,1.9006812 0 0 1 -1.13487,2.389698 4.5394915,4.5394915 0 0 1 -0.562836,0.276799 c -4.456437,1.374775 -6.144922,4.927003 -7.012219,9.051294 a 17.53054,17.53054 0 0 0 0.858073,9.337326 c 0.682763,2.002184 1.365539,4.013583 2.066775,6.015742 a 1.55007,1.55007 0 0 1 -0.193761,1.651572 c -4.38265,5.508187 -5.074641,11.736217 -3.773684,18.444067 z m 4.613291,-34.2308 a 8.3962138,8.3962138 0 0 1 3.386168,-5.185349 c 0.387519,-0.258338 0.922656,-0.636629 1.300969,-0.110711 0.701209,1.014925 1.633106,1.937587 1.743805,3.257001 a 56.374573,56.374573 0 0 1 0.166096,7.279782 c -0.138405,3.063228 -0.922668,5.821998 -3.88441,7.455103 -0.562823,0.3137 -0.922644,0.350603 -1.061057,-0.332165 a 43.586494,43.586494 0 0 1 -1.891446,-9.770966 9.4019162,9.4019162 0 0 1 0.239875,-2.592695 z"
       class="cls-4" />
    <rect
       style="fill:#7ba9ba;stroke-width:0.92266065"
       id="rect16"
       ry="3.7090962"
       rx="3.7090962"
       height="9.2819672"
       width="17.456745"
       y="61.29351"
       x="55.229614"
       class="cls-5" />
    <rect
       style="fill:#7ba9ba;stroke-width:0.92266065"
       id="rect18"
       ry="3.7090962"
       rx="3.7090962"
       height="9.2819672"
       width="31.388905"
       y="74.588936"
       x="55.229614"
       class="cls-5" />
    <rect
       style="fill:#7ba9ba;stroke-width:0.92266065"
       id="rect20"
       ry="3.7090962"
       rx="3.7090962"
       height="9.2819672"
       width="40.680111"
       y="87.884583"
       x="55.229614"
       class="cls-5" />
    <rect
       style="fill:#7ba9ba;stroke-width:0.92266065"
       id="rect22"
       ry="3.7090962"
       rx="3.7090962"
       height="9.2819672"
       width="31.388905"
       y="101.18008"
       x="55.229614"
       class="cls-5" />
    <rect
       style="fill:#7ba9ba;stroke-width:0.92266065"
       id="rect24"
       ry="3.7090962"
       rx="3.7090962"
       height="9.2819672"
       width="54.612274"
       y="114.47561"
       x="55.229614"
       class="cls-5" />
    <rect
       style="fill:#7ba9ba;stroke-width:0.92266065"
       id="rect26"
       ry="3.7090962"
       rx="3.7090962"
       height="9.2819672"
       width="45.321079"
       y="127.78058"
       x="55.229614"
       class="cls-5" />
    <rect
       style="fill:#7ba9ba;stroke-width:0.92266065"
       id="rect28"
       ry="3.7090962"
       rx="3.7090962"
       height="9.2819672"
       width="36.029877"
       y="141.07605"
       x="55.229614"
       class="cls-5" />
    <text
       xml:space="preserve"
       style="font-style:normal;font-weight:normal;font-size:21.17798615px;line-height:1.25;font-family:sans-serif;letter-spacing:0px;word-spacing:0px;fill:#7ba9ba;fill-opacity:1;stroke:none;stroke-width:0.81915885"
       x="-29.605083"
       y="191.92908"
       id="text856"
       transform="matrix(0.86694728,-0.49946832,0.50053224,0.86510451,0,0)"><tspan
         sodipodi:role="line"
         id="tspan854"
         x="-29.605083"
         y="191.92908"
         style="font-style:normal;font-variant:normal;font-weight:normal;font-stretch:normal;font-family:Roboto;-inkscape-font-specification:Roboto;fill:#7ba9ba;fill-opacity:1;stroke-width:0.81915885">tabula</tspan></text>
  </g>
  <polygon
     class="cls-6"
     points="69.17,152.33 3.21,114.25 3.21,38.08 69.17,0 135.13,38.08 135.13,114.25 "
     id="polygon30"
     style="fill:none;fill-rule:evenodd"
     transform="translate(0,34.000006)" />
</svg>
