<svg id="Calque_1" data-name="Calque 1" xmlns="http://www.w3.org/2000/svg" viewBox="0 0 135.13 158"><defs><style>.cls-1{fill:#ccc;}.cls-1,.cls-2,.cls-3,.cls-4,.cls-6{fill-rule:evenodd;}.cls-2{fill:#1b496a;}.cls-3{fill:#0d1f2e;opacity:0.4;}.cls-4,.cls-5{fill:#7ba9ba;}.cls-6{fill:none;}</style></defs><title>tabula</title><polygon class="cls-1" points="131.93 119.92 65.96 158 0 119.92 0 43.75 65.96 5.67 131.93 43.75 131.93 119.92"/><polygon class="cls-2" points="135.13 114.25 69.17 152.33 3.21 114.25 3.21 38.08 69.17 0 135.13 38.08 135.13 114.25"/><polyline class="cls-3" points="42.69 23.02 3.21 45.82 3.21 114.25 52.04 142.44 96.57 116.74 92.19 110.77 107.06 102.06 102.14 96.5 117.29 87.53 78.32 81.28 91.83 73.33 72.05 66.11 88.27 66.83 102.16 58.81 80.29 51.3 91.84 44.5 65.44 36.54 77.22 29.7 61.66 21.22 48.75 28.64"/><path class="cls-4" d="M36.49,80.58a82.3,82.3,0,0,0,6.66,19,46.38,46.38,0,0,1,4.2,12.84,3.08,3.08,0,0,0,1.74,2.35,17.47,17.47,0,0,0,8.14,1.93V21.22a43.39,43.39,0,0,0-7,.54,14.76,14.76,0,0,0-2.84.71,2.56,2.56,0,0,0-1.73,3.31,5.7,5.7,0,0,0,.7,1.78,5.38,5.38,0,0,1,.7,1.9,2.06,2.06,0,0,1-1.23,2.59,4.92,4.92,0,0,1-.61.3c-4.83,1.49-6.66,5.34-7.6,9.81a19,19,0,0,0,.93,10.12c.74,2.17,1.48,4.35,2.24,6.52a1.68,1.68,0,0,1-.21,1.79C35.83,66.56,35.08,73.31,36.49,80.58Zm5-37.1a9.1,9.1,0,0,1,3.67-5.62c.42-.28,1-.69,1.41-.12.76,1.1,1.77,2.1,1.89,3.53a61.1,61.1,0,0,1,.18,7.89c-.15,3.32-1,6.31-4.21,8.08-.61.34-1,.38-1.15-.36a47.24,47.24,0,0,1-2.05-10.59A10.19,10.19,0,0,1,41.49,43.48Z" transform="translate(-3.85)"/><rect class="cls-5" x="59.59" y="20.72" width="18.92" height="10.06" rx="4.02" ry="4.02"/><rect class="cls-5" x="59.59" y="35.13" width="34.02" height="10.06" rx="4.02" ry="4.02"/><rect class="cls-5" x="59.59" y="49.54" width="44.09" height="10.06" rx="4.02" ry="4.02"/><rect class="cls-5" x="59.59" y="63.95" width="34.02" height="10.06" rx="4.02" ry="4.02"/><rect class="cls-5" x="59.59" y="78.36" width="59.19" height="10.06" rx="4.02" ry="4.02"/><rect class="cls-5" x="59.59" y="92.78" width="49.12" height="10.06" rx="4.02" ry="4.02"/><rect class="cls-5" x="59.59" y="107.19" width="39.05" height="10.06" rx="4.02" ry="4.02"/><polygon class="cls-6" points="135.13 114.25 69.17 152.33 3.21 114.25 3.21 38.08 69.17 0 135.13 38.08 135.13 114.25"/><path class="cls-5" d="M85.39,141.64a2.84,2.84,0,0,1-2.24.41,3,3,0,0,1-1.78-1.49l-3-5-1.07.63L76.65,135l1.07-.63-.91-1.55,1.46-1.06,1,1.7,2.23-1.32.69,1.16L80,134.63l2.8,4.74c.66,1.11,1.47,1.38,2.43.82a4.23,4.23,0,0,0,.69-.55l.63,1.07A5.77,5.77,0,0,1,85.39,141.64Z" transform="translate(-3.85)"/><path class="cls-5" d="M92.49,135.71a4.73,4.73,0,0,1-1.92,2.87,2.84,2.84,0,0,1-2.16.37,2.56,2.56,0,0,1-1.69-1.26,2.8,2.8,0,0,1-.09-2.85,7.23,7.23,0,0,1,2.92-2.74l.37-.22-.61-1a1.54,1.54,0,0,0-2.4-.58,6.7,6.7,0,0,0-2.21,2.32L84,131.31a9.08,9.08,0,0,1,2.55-2.37,3.47,3.47,0,0,1,2.5-.61,3.1,3.1,0,0,1,1.86,1.61l2.29,3.87c.52.88,1.06,1.17,1.6.84a2.21,2.21,0,0,0,.28-.21l.62.8a3.2,3.2,0,0,1-1,.94A1.62,1.62,0,0,1,92.49,135.71Zm-.72-.71-1.31-2.2-.53.29a4.48,4.48,0,0,0-1.77,1.7,1.66,1.66,0,0,0,0,1.73,1.48,1.48,0,0,0,.95.71,1.52,1.52,0,0,0,1.19-.18A3.71,3.71,0,0,0,91.77,135Z" transform="translate(-3.85)"/><path class="cls-5" d="M97.68,134.24l-7.39-12.51,1.55-.92,3.23,5.48a3.56,3.56,0,0,1,1.8-3.48,3.42,3.42,0,0,1,3.09-.31,5.71,5.71,0,0,1,2.7,2.56,6.27,6.27,0,0,1,1,4,3.65,3.65,0,0,1-1.87,2.86,3.7,3.7,0,0,1-3.21.33l.44,1.17Zm.29-3.05a4.07,4.07,0,0,0,2.91-.28q2.24-1.32.22-4.72c-1.18-2-2.43-2.62-3.75-1.84a4,4,0,0,0-1.7,2.91Z" transform="translate(-3.85)"/><path class="cls-5" d="M113.1,125l-.95-1.6a4.17,4.17,0,0,1-1.93,3.57,2.68,2.68,0,0,1-2.19.34,3.09,3.09,0,0,1-1.79-1.51l-3.62-6.13,1.55-.92,3.33,5.63a2.88,2.88,0,0,0,1.08,1.2,1.21,1.21,0,0,0,1.17-.14c1-.56,1.47-1.71,1.57-3.45l-3.27-5.53,1.55-.92,5.05,8.54Z" transform="translate(-3.85)"/><path class="cls-5" d="M117.76,122.25l-7.34-12.42,1.55-.92,7.34,12.42Z" transform="translate(-3.85)"/><path class="cls-5" d="M126.17,115.81a4.73,4.73,0,0,1-1.92,2.87,2.87,2.87,0,0,1-2.15.37,2.58,2.58,0,0,1-1.7-1.26,2.8,2.8,0,0,1-.09-2.85,7.29,7.29,0,0,1,2.92-2.74l.37-.22-.6-1a1.55,1.55,0,0,0-2.41-.58,6.5,6.5,0,0,0-2.2,2.32l-.76-1.29a9,9,0,0,1,2.56-2.37,3.47,3.47,0,0,1,2.49-.6,3.05,3.05,0,0,1,1.86,1.6l2.29,3.87c.52.89,1.06,1.17,1.6.85a1.67,1.67,0,0,0,.28-.21l.62.79a3,3,0,0,1-1,.94A1.61,1.61,0,0,1,126.17,115.81Zm-.72-.71-1.31-2.21-.53.29a4.54,4.54,0,0,0-1.77,1.7,1.7,1.7,0,0,0,0,1.74,1.48,1.48,0,0,0,1,.71,1.54,1.54,0,0,0,1.18-.18A3.71,3.71,0,0,0,125.45,115.1Z" transform="translate(-3.85)"/></svg>